<?xml version="1.0" standalone="no"?>
<!DOCTYPE svg PUBLIC "-//W3C//DTD SVG 20010904//EN"
 "http://www.w3.org/TR/2001/REC-SVG-20010904/DTD/svg10.dtd">
<svg version="1.0" xmlns="http://www.w3.org/2000/svg"
 width="1536.000000pt" height="1024.000000pt" viewBox="0 0 1536.000000 1024.000000"
 preserveAspectRatio="xMidYMid meet">

<g transform="translate(0.000000,1024.000000) scale(0.100000,-0.100000)"
fill="#000000" stroke="none">
<path d="M5195 5850 c0 -217 1 -306 2 -197 2 108 2 286 0 395 -1 108 -2 19 -2
-198z"/>
<path d="M5402 5870 c-2 -247 -6 -370 -12 -360 -8 12 -10 10 -10 -8 0 -13 4
-20 10 -17 6 4 5 -5 -2 -19 -6 -14 -14 -26 -18 -26 -4 0 -10 -9 -13 -19 -3
-14 -1 -18 9 -14 9 3 14 -2 14 -13 0 -15 2 -16 9 -5 7 11 9 11 14 0 4 -8 4 4
2 26 l-4 40 10 -35 c5 -19 19 -46 30 -60 17 -22 17 -19 -3 20 -23 44 -23 52
-28 455 l-6 410 -2 -375z"/>
<path d="M6579 5803 l-34 -38 38 34 c20 19 37 36 37 38 0 8 -8 0 -41 -34z"/>
<path d="M6345 5300 c0 -256 1 -360 2 -233 2 128 2 338 0 465 -1 128 -2 24 -2
-232z"/>
<path d="M5943 5615 c0 -44 2 -61 4 -37 2 23 2 59 0 80 -2 20 -4 1 -4 -43z"/>
<path d="M6141 5670 c-1 -14 -8 -34 -16 -44 -18 -24 -20 -77 -4 -93 7 -7 15
-40 19 -75 l6 -63 8 79 c5 46 4 107 -1 150 -6 39 -11 60 -12 46z"/>
<path d="M7211 5534 c0 -11 3 -14 6 -6 3 7 2 16 -1 19 -3 4 -6 -2 -5 -13z"/>
<path d="M2931 5514 c0 -11 3 -14 6 -6 3 7 2 16 -1 19 -3 4 -6 -2 -5 -13z"/>
<path d="M4771 5514 c0 -11 3 -14 6 -6 3 7 2 16 -1 19 -3 4 -6 -2 -5 -13z"/>
<path d="M6530 5466 c0 -19 3 -37 8 -40 4 -2 6 13 4 35 -5 48 -12 51 -12 5z"/>
<path d="M2941 5474 c0 -11 3 -14 6 -6 3 7 2 16 -1 19 -3 4 -6 -2 -5 -13z"/>
<path d="M5928 5457 c-3 -19 -2 -25 4 -19 6 6 8 18 6 28 -3 14 -5 12 -10 -9z"/>
<path d="M4744 5426 c-4 -16 -14 -26 -25 -27 -34 -2 -39 -4 -36 -10 1 -3 -4
-13 -12 -22 -9 -11 -10 -17 -2 -17 6 0 11 -8 11 -17 0 -16 -1 -16 -16 -1 -14
14 -15 22 -5 49 14 42 8 48 -16 14 -42 -62 -160 -178 -217 -214 -82 -51 -189
-96 -306 -128 -84 -23 -117 -26 -290 -29 -196 -3 -254 1 -244 17 3 5 0 9 -7 9
-7 0 -5 8 7 21 15 17 10 16 -28 -7 -43 -27 -45 -30 -25 -38 96 -40 131 -63
211 -141 120 -116 160 -148 251 -200 58 -33 97 -47 152 -56 68 -11 73 -13 67
-33 -4 -12 -7 -21 -8 -21 0 -1 -21 -16 -46 -36 -42 -33 -102 -65 -107 -57 -1
1 -8 -4 -15 -13 -15 -18 -158 -39 -280 -40 -40 0 -82 -4 -93 -9 -16 -6 -33 4
-89 59 -51 48 -59 54 -30 20 53 -62 109 -110 119 -101 5 4 5 2 2 -5 -7 -11 86
-103 161 -160 l32 -25 63 55 c119 105 295 283 397 403 142 165 353 504 334
535 -4 7 -3 9 3 6 13 -8 26 20 16 35 -3 6 -1 8 4 5 6 -4 16 7 22 25 14 39 14
47 0 28 -9 -12 -10 -12 -5 3 3 10 6 24 6 30 0 8 3 7 9 -2 6 -9 15 6 30 50 11
34 19 64 16 67 -2 2 -7 -7 -11 -22z m-644 -946 c0 -5 -8 -10 -17 -10 -15 0
-16 2 -3 10 19 12 20 12 20 0z"/>
<path d="M5206 5402 c10 -108 74 -223 155 -282 88 -63 258 -101 374 -84 54 8
48 9 -63 9 -96 0 -125 3 -132 15 -5 8 -6 18 -4 22 3 4 -2 5 -10 2 -9 -3 -16
-1 -16 5 0 7 -8 7 -26 1 -14 -6 -31 -10 -37 -9 -7 0 0 5 16 11 15 5 27 14 27
19 0 5 11 9 25 9 14 0 26 3 26 8 7 41 5 53 -9 47 -8 -3 -20 -1 -26 3 -21 17
-55 20 -60 6 -7 -17 -53 -18 -59 -1 -4 9 -8 8 -16 -3 -8 -12 -14 -13 -28 -3
-10 6 -17 17 -15 24 2 10 0 10 -12 0 -11 -10 -17 -8 -29 10 -9 12 -13 28 -10
37 4 10 2 13 -5 8 -8 -5 -10 -2 -6 8 9 25 22 19 27 -11 2 -16 3 -12 1 7 -2 19
-5 44 -8 55 -2 11 -5 23 -5 28 -1 4 -8 7 -17 7 -8 0 -13 4 -10 9 3 5 -1 11 -8
14 -9 4 -17 -1 -19 -11 -3 -10 -6 -4 -7 13 -1 17 -6 41 -11 55 -6 18 -7 9 -3
-28z m126 -229 c2 -5 18 -20 36 -35 19 -16 30 -28 25 -28 -13 1 -89 70 -76 70
6 0 13 -3 15 -7z m183 -103 c13 -5 14 -9 5 -9 -8 0 -24 4 -35 9 -13 5 -14 9
-5 9 8 0 24 -4 35 -9z"/>
<path d="M7011 5428 c0 -9 -4 -25 -7 -35 -5 -17 -5 -17 6 0 6 10 9 25 7 35 -4
15 -5 15 -6 0z"/>
<path d="M2960 5415 c0 -5 5 -17 10 -25 5 -8 10 -10 10 -5 0 6 -5 17 -10 25
-5 8 -10 11 -10 5z"/>
<path d="M6541 5400 c0 -14 28 -72 29 -59 0 4 -7 22 -15 40 -8 19 -14 27 -14
19z"/>
<path d="M6125 5361 c-4 -17 -11 -33 -16 -36 -5 -4 -9 -15 -9 -26 0 -10 -4
-19 -8 -19 -4 0 -8 -9 -8 -19 0 -11 3 -18 7 -15 10 6 52 134 46 140 -3 3 -8
-8 -12 -25z"/>
<path d="M2980 5359 c0 -35 66 -87 96 -75 11 4 10 10 -8 28 -13 13 -27 23 -31
23 -4 0 -11 5 -15 11 -10 15 -42 25 -42 13z"/>
<path d="M5870 5318 c-15 -21 -17 -28 -6 -19 16 13 41 51 33 51 -2 0 -14 -15
-27 -32z"/>
<path d="M3294 5324 c4 -12 2 -15 -9 -10 -10 3 -15 -1 -15 -14 0 -14 -9 -20
-32 -23 -32 -4 -32 -4 7 -7 37 -3 35 -4 -20 -11 -58 -7 -57 -7 22 -5 68 1 86
5 102 21 20 20 20 20 -20 42 -33 18 -40 19 -35 7z m51 -44 c-3 -5 -12 -10 -18
-10 -7 0 -6 4 3 10 19 12 23 12 15 0z"/>
<path d="M5480 5305 c13 -14 26 -25 28 -25 3 0 -5 11 -18 25 -13 14 -26 25
-28 25 -3 0 5 -11 18 -25z"/>
<path d="M6595 5300 c10 -11 20 -20 23 -20 3 0 -3 9 -13 20 -10 11 -20 20 -23
20 -3 0 3 -9 13 -20z"/>
<path d="M7179 5294 c-5 -15 -8 -29 -5 -31 2 -2 8 10 14 26 13 38 5 41 -9 5z"/>
<path d="M7302 5300 c0 -14 2 -19 5 -12 2 6 2 18 0 25 -3 6 -5 1 -5 -13z"/>
<path d="M3105 5270 c11 -5 29 -8 40 -8 16 0 15 2 -5 8 -34 11 -60 11 -35 0z"/>
<path d="M3178 5273 c7 -3 16 -2 19 1 4 3 -2 6 -13 5 -11 0 -14 -3 -6 -6z"/>
<path d="M5520 5275 c0 -8 61 -36 70 -33 5 2 -9 11 -30 20 -22 9 -40 15 -40
13z"/>
<path d="M5675 5240 l-70 -6 65 -2 c36 0 74 3 85 8 22 9 22 9 -80 0z"/>
<path d="M5578 5223 c7 -3 16 -2 19 1 4 3 -2 6 -13 5 -11 0 -14 -3 -6 -6z"/>
<path d="M6059 5213 c-13 -16 -12 -17 4 -4 9 7 17 15 17 17 0 8 -8 3 -21 -13z"/>
<path d="M6019 5163 l-24 -28 28 24 c15 14 27 26 27 28 0 8 -8 1 -31 -24z"/>
<path d="M6585 5130 c21 -22 41 -40 44 -40 3 0 -13 18 -34 40 -21 22 -41 40
-44 40 -3 0 13 -18 34 -40z"/>
<path d="M5969 5123 c-13 -16 -12 -17 4 -4 16 13 21 21 13 21 -2 0 -10 -8 -17
-17z"/>
<path d="M6544 4945 c0 -110 2 -156 3 -103 2 53 2 143 0 200 -1 57 -3 13 -3
-97z"/>
<path d="M5935 5110 c6 -10 4 -12 -9 -7 -9 4 -15 3 -12 -2 3 -5 -22 -18 -57
-29 -34 -12 -54 -21 -45 -22 19 0 119 37 131 50 5 4 3 11 -4 15 -8 6 -10 4 -4
-5z"/>
<path d="M7010 5090 c-9 -6 -10 -10 -3 -10 6 0 15 5 18 10 8 12 4 12 -15 0z"/>
<path d="M5556 5068 c3 -4 9 -8 15 -8 5 0 9 4 9 8 0 5 -7 9 -15 9 -8 0 -12 -4
-9 -9z"/>
<path d="M6393 4733 c26 -2 68 -2 95 0 26 2 4 3 -48 3 -52 0 -74 -1 -47 -3z"/>
<path d="M8486 4444 c-31 -30 -8 -69 36 -62 26 3 37 41 18 64 -16 18 -35 18
-54 -2z"/>
<path d="M6331 4210 c-3 -239 -3 -240 18 -240 16 0 21 6 21 25 0 30 11 32 27
5 20 -31 85 -46 136 -31 82 25 121 88 115 188 -4 67 -21 100 -71 137 -39 29
-122 28 -164 -1 -17 -13 -33 -23 -35 -23 -1 0 -3 41 -2 90 1 85 0 90 -20 90
-21 0 -21 -4 -25 -240z m186 59 c98 -37 121 -167 42 -233 -53 -45 -142 -28
-174 34 -20 39 -19 114 2 147 18 27 69 63 90 63 6 0 24 -5 40 -11z"/>
<path d="M7392 4424 c-80 -40 -123 -112 -128 -215 -6 -123 64 -214 185 -240
84 -17 177 7 224 58 16 19 16 21 -4 38 -16 16 -23 17 -37 7 -65 -48 -167 -55
-220 -15 -92 68 -105 196 -29 277 59 62 162 70 236 17 26 -19 27 -19 50 0 23
19 23 20 6 39 -58 64 -191 80 -283 34z"/>
<path d="M7770 4210 l0 -240 35 0 35 0 0 116 c0 114 0 116 29 145 20 19 40 29
59 29 76 0 92 -31 92 -180 l0 -110 30 0 30 0 0 130 c0 146 -10 179 -60 205
-40 21 -99 19 -138 -5 -18 -11 -35 -20 -37 -20 -3 0 -5 38 -5 85 l0 85 -35 0
-35 0 0 -240z"/>
<path d="M9030 4205 l0 -238 128 5 c143 5 185 20 239 82 42 47 56 95 51 176
-3 57 -9 77 -34 112 -16 24 -50 54 -74 68 -41 22 -58 25 -177 28 l-133 4 0
-237z m257 154 c59 -29 86 -70 91 -138 3 -45 -1 -65 -20 -100 -32 -60 -79 -83
-179 -89 l-79 -5 0 177 0 176 72 0 c52 0 83 -6 115 -21z"/>
<path d="M8325 4303 c-16 -8 -38 -22 -47 -31 -17 -14 -18 -13 -18 11 0 24 -4
27 -35 27 l-35 0 0 -170 0 -170 35 0 35 0 0 98 c0 57 5 107 13 121 18 35 62
64 97 64 27 0 30 3 30 34 0 28 -4 33 -22 33 -13 -1 -36 -8 -53 -17z"/>
<path d="M8788 4313 l-138 -4 0 -24 c0 -25 1 -25 95 -25 52 0 95 -4 95 -9 0
-5 -3 -11 -8 -13 -4 -1 -49 -51 -100 -109 -66 -76 -92 -114 -92 -133 l0 -26
148 0 149 0 -5 30 -4 30 -101 0 -101 0 36 38 c92 95 168 197 168 224 0 16 -1
27 -2 26 -2 -1 -65 -4 -140 -5z"/>
<path d="M9620 4298 c-78 -40 -107 -122 -79 -222 23 -82 120 -130 217 -107 26
7 58 20 72 31 24 18 24 19 6 39 -17 19 -20 19 -43 4 -16 -10 -47 -17 -80 -17
-49 -1 -57 2 -84 32 -52 58 -46 62 107 62 l137 0 -5 51 c-9 85 -62 137 -149
145 -44 4 -63 1 -99 -18z m146 -54 c12 -7 26 -27 32 -43 l11 -31 -105 0 c-57
0 -104 2 -104 5 0 4 7 20 16 36 27 53 95 68 150 33z"/>
<path d="M6741 4198 c28 -62 58 -131 66 -153 9 -22 20 -45 26 -52 6 -8 1 -27
-15 -55 -21 -38 -28 -43 -55 -41 -23 2 -32 -2 -36 -16 -10 -40 83 -45 109 -6
14 22 73 162 160 378 l23 58 -26 -3 c-22 -3 -31 -17 -77 -135 -28 -73 -54
-133 -57 -133 -6 0 -24 43 -91 218 -18 46 -24 52 -49 52 l-28 0 50 -112z"/>
<path d="M8480 4140 l0 -170 35 0 35 0 0 170 0 170 -35 0 -35 0 0 -170z"/>
<path d="M9929 4263 c11 -27 42 -102 68 -168 l49 -120 40 -3 39 -3 49 123 c27
68 60 144 73 171 l23 47 -39 0 -39 0 -48 -125 c-27 -69 -52 -125 -55 -125 -3
0 -28 56 -55 125 l-49 125 -37 0 -38 0 19 -47z"/>
</g>
</svg>
